<svg xmlns="http://www.w3.org/2000/svg" width="258" height="54.282" viewBox="0 0 258 54.282"><defs><style>.a{fill:#fff;}</style></defs><path class="a" d="M35.53,393.282V339H72.8v31.565H60.064L72.8,393.282H63.013L49.63,370.565H45.964v22.717ZM45.964,348.3v13.419H63.013V348.3Z" transform="translate(-35.53 -339)"/><path class="a" d="M2014.543,393.282H2004.11V339h10.433l10.585,29.751,11-29.751h9.791v54.282h-9.791V370.565l-7.6,22.717h-6.124l-7.866-22.72Z" transform="translate(-1833.952 -339)"/><path class="a" d="M2589.15,370.565V339h37.273v9.3h-26.84v13.419h26.84v31.563H2589.15v-9.3h27.483v-13.42Z" transform="translate(-2368.423 -339)"/><path class="a" d="M607.7,340.09H553.52v54.188H608.8V340.09ZM563.83,383.964V350.4h34.661v33.563Z" transform="translate(-508.747 -339.996)"/><path class="a" d="M1331,340.09H1276.82v54.188H1332.1V340.09Zm-43.874,43.875V350.4h34.661v33.563Z" transform="translate(-1169.527 -339.996)"/></svg>