<svg xmlns="http://www.w3.org/2000/svg" width="863.222" height="548.188" viewBox="0 0 863.222 548.188"><defs><style>.a{fill:#466eb6;}.b{fill:#7f1ca0;}.c{fill:#f47458;}.d{fill:#f48c7f;}.e{fill:#b75742;}.f{fill:#13375b;}.g{fill:#355389;}.h{fill:#86b1f2;}.i{fill:#fae0b2;}.j{fill:#daeef7;mix-blend-mode:multiply;isolation:isolate;}.k{fill:#50bfa5;}.l{fill:#3c8f7c;}.m{fill:#184655;}.n{fill:#f7cc7f;}.o{fill:#f7931e;}.p{fill:#fff;}.q{fill:#fbb03b;}.r{fill:#efefef;}.s{fill:#f79c8d;}.t{fill:#042a44;}.u{fill:#07345a;}.v{fill:#f7a491;}.w{fill:#327f6b;}.x{fill:#ebf3fe;}.y{fill:#ae7418;}.z{fill:#f2f2f2;}</style></defs><g transform="translate(-54.642 -66.702)"><g transform="translate(684.714 426.209)"><path class="a" d="M2200.949,1263.9c1.6,0,2.9,1.842,2.908,4.123s-1.287,4.133-2.888,4.137-2.9-1.842-2.908-4.123S2199.348,1263.907,2200.949,1263.9Zm0,1.167c-.859,0-1.554.432-1.553.96s.7.955,1.558.953,1.554-.432,1.553-.96S2201.811,1265.068,2200.952,1265.07Zm.014,5.543c1.212,0,2.192-.666,2.19-1.48s-.986-1.472-2.2-1.469-2.192.666-2.19,1.48S2199.754,1270.616,2200.965,1270.613Z" transform="translate(-2184.487 -1263.903)"/><path class="b" d="M2175.9,1294.27a10.015,10.015,0,0,1,.931,4.185l.074,30.237a3.324,3.324,0,0,1-3.332,3.314l-17.29.043a3.324,3.324,0,0,1-3.348-3.3l-.074-30.237a10.01,10.01,0,0,1,.911-4.19Z" transform="translate(-2152.863 -1285.151)"/><path class="b" d="M2175.9,1294.27a10.015,10.015,0,0,1,.931,4.185l.074,30.237a3.324,3.324,0,0,1-3.332,3.314l-17.29.043a3.324,3.324,0,0,1-3.348-3.3l-.074-30.237a10.01,10.01,0,0,1,.911-4.19Z" transform="translate(-2152.863 -1285.151)"/><path class="c" d="M2152.859,1298.516l.074,30.239a3.325,3.325,0,0,0,3.348,3.3l17.29-.042a3.323,3.323,0,0,0,3.332-3.315l-.074-30.239a10.014,10.014,0,0,0-.93-4.183l-22.127.054A10.022,10.022,0,0,0,2152.859,1298.516Z" transform="translate(-2152.859 -1285.154)"/><path class="d" d="M2209.9,1328.7l-.074-30.237a10.011,10.011,0,0,0-.931-4.185l4.584-.011a10,10,0,0,1,.93,4.185l.075,30.237a3.324,3.324,0,0,1-3.332,3.314l-4.584.011A3.324,3.324,0,0,0,2209.9,1328.7Z" transform="translate(-2190.443 -1285.151)"/><path class="e" d="M2152.859,1298.6l.074,30.239a3.325,3.325,0,0,0,3.348,3.3l7.069-.017a3.344,3.344,0,0,1-3.384-3.3l-.074-30.239a9.959,9.959,0,0,1,.921-4.187l-7.042.017A10.023,10.023,0,0,0,2152.859,1298.6Z" transform="translate(-2152.859 -1285.241)"/><path class="f" d="M2155.9,1290.256l22.131-.054h0a1.759,1.759,0,0,0-1.772-1.746l-18.594.046a1.759,1.759,0,0,0-1.764,1.755Z" transform="translate(-2154.985 -1281.082)"/><rect class="g" width="23.97" height="3.758" transform="translate(0.06 37.63) rotate(-0.141)"/></g><g transform="translate(725.905 425.12)"><path class="h" d="M2295.958,1260.751h-2.644a2.764,2.764,0,0,1,1.562-.473h66.231c3.465,0,6.274,2.49,6.274,5.562v3.533c0,3.071-2.809,5.562-6.274,5.562l-65.49-.02Z" transform="translate(-2292.328 -1260.278)"/><path class="a" d="M2331.261,1260.322c3.314,0,6,2.381,6,5.319v3.992c0,2.938-2.686,5.319-6,5.319h-41.23v-.893h.17l10.481-.88,2.119-7.368s-4.089-4.071-4.356-4.176-8.245-.423-8.245-.423l-.17,0v-.888Z" transform="translate(-2290.031 -1260.309)"/><path class="i" d="M2293.084,1269.692a8.509,8.509,0,0,0-2.511-6.4H2330.8c3.044,0,5.511,2.187,5.511,4.885v3.073c0,2.7-2.468,4.885-5.511,4.885h-40.223S2293.084,1275.115,2293.084,1269.692Z" transform="translate(-2290.41 -1262.39)"/><path class="j" d="M2336.307,1268.181v3.073a4.34,4.34,0,0,1-.161,1.172,11.523,11.523,0,0,0-8.906-6.687c-11.556-2.128-36.667-2.442-36.667-2.442H2330.8C2333.84,1263.3,2336.307,1265.483,2336.307,1268.181Z" transform="translate(-2290.41 -1262.39)"/><path class="k" d="M2298.777,1358.027h-2.992a2.922,2.922,0,0,1,1.768-.592h74.96a7.033,7.033,0,0,1,7.1,6.962v4.422a7.033,7.033,0,0,1-7.1,6.962l-74.122-.025Z" transform="translate(-2294.057 -1328.26)"/><path class="l" d="M2338.733,1357.489a6.725,6.725,0,0,1,6.791,6.658v5a6.725,6.725,0,0,1-6.791,6.657h-46.665v-1.118h.193l11.863-1.1,2.4-9.222s-4.628-5.1-4.93-5.227-9.331-.53-9.331-.53l-.193,0v-1.112Z" transform="translate(-2291.457 -1328.298)"/><path class="i" d="M2295.525,1369.217c0-5.392-2.842-8.005-2.842-8.005h45.524a6.177,6.177,0,0,1,6.238,6.115v3.846a6.177,6.177,0,0,1-6.238,6.115h-45.524S2295.525,1376.006,2295.525,1369.217Z" transform="translate(-2291.887 -1330.903)"/><path class="j" d="M2344.445,1367.327v3.846a6.021,6.021,0,0,1-.182,1.467,13.338,13.338,0,0,0-10.08-8.371c-13.079-2.663-41.5-3.058-41.5-3.058h45.524A6.177,6.177,0,0,1,2344.445,1367.327Z" transform="translate(-2291.887 -1330.903)"/><path class="c" d="M2394.74,1309.43h2.994a3.449,3.449,0,0,0-1.769-.47h-74.99c-3.923,0-7.1,2.473-7.1,5.524v3.509c0,3.051,3.181,5.524,7.1,5.524l74.151-.02Z" transform="translate(-2306.712 -1294.341)"/><path class="e" d="M2425.571,1309c-3.752,0-6.793,2.365-6.793,5.282v3.965c0,2.917,3.041,5.282,6.793,5.282h46.683v-.887h-.193l-11.868-.874-2.4-7.317s4.63-4.043,4.932-4.148,9.335-.421,9.335-.421h.193V1309Z" transform="translate(-2380.117 -1294.372)"/><path class="i" d="M2472.744,1318.309a8.063,8.063,0,0,1,2.843-6.352h-45.542c-3.446,0-6.24,2.173-6.24,4.852v3.052c0,2.68,2.794,4.852,6.24,4.852h45.542S2472.744,1323.7,2472.744,1318.309Z" transform="translate(-2383.634 -1296.438)"/><path class="j" d="M2423.8,1316.809v3.052a3.848,3.848,0,0,0,.182,1.164c1.536-2.922,4.48-5.737,10.084-6.642,13.084-2.113,41.516-2.426,41.516-2.426h-45.542C2426.6,1311.957,2423.8,1314.13,2423.8,1316.809Z" transform="translate(-2383.634 -1296.438)"/></g><rect class="m" width="7.156" height="163.969" transform="translate(576.245 607.784) rotate(169.268)"/><path class="m" d="M971.778,1495.233h-8.457l31.514-163.2,7.03,1.333Z" transform="translate(-635.813 -885.369)"/><path class="m" d="M1487.35,1495.233h-8.457l31.514-163.2,7.031,1.333Z" transform="translate(-996.564 -885.369)"/><path class="m" d="M1177.284,1496.94l6.866.082-30.213-162.545-7.03,1.333Z" transform="translate(-764.269 -887.076)"/><path class="i" d="M1066.6,598.5c-27.839,2.982-63.867,6.127-100.036,67.5-39.53,67.083-18.721,167.287,12.479,195.132s133.1,62.228,218.762,10.755c0,0,51.723-31.193,25.178-82.961-40.849-79.666-35.077-96.279-53.342-127.5S1125.694,592.173,1066.6,598.5Z" transform="translate(-622.911 -371.618)"/><path class="n" d="M966.563,678.7c24.686-41.892,49.306-56.654,71.3-62.754-8.508,8.8-17.134,20.131-25.767,34.783-39.53,67.082-18.721,167.287,12.479,195.133,27.669,24.694,110.938,54.518,189.176,25.057a79.48,79.48,0,0,1-15.95,13.67c-85.66,51.472-187.561,17.09-218.762-10.755S927.033,745.78,966.563,678.7Z" transform="translate(-622.911 -384.31)"/><path class="o" d="M2579.77,726.149c.79,6.223-5.691,11.162-11.455,10.772A14.182,14.182,0,0,1,2555.607,725c-1.009-6.777,3.063-12.2,9.363-12.694a7.86,7.86,0,0,1,8.284,10.483c-1.27,3.949-4.874,5.421-6.69,4.332a1.8,1.8,0,0,1,.384-3.369,1.771,1.771,0,0,1,1.76.759c1.5-.6,2.927-3.326,1.959-6.275-1.238-3.766-6-3.982-8.956-2.225-3.764,2.236-4.355,7.05-2.975,10.887a11.584,11.584,0,0,0,9.713,7.507,9.026,9.026,0,0,0,9.562-8.254A.881.881,0,0,1,2579.77,726.149Z" transform="translate(-1749.845 -451.718)"/><path class="p" d="M1086.791,66.7c28.814-.171,52.257,14.039,52.362,31.739.052,8.85-5.74,16.9-15.147,22.753l11.849,26.027-24.729-20.141a79.453,79.453,0,0,1-23.955,3.719c-28.814.171-52.257-14.039-52.362-31.739S1057.977,66.874,1086.791,66.7Z" transform="translate(-685.833 0)"/><path class="q" d="M1191.05,130.41A18.181,18.181,0,1,1,1178.1,108.19,18.179,18.179,0,0,1,1191.05,130.41Z" transform="translate(-770.131 -28.606)"/><path class="r" d="M1181.344,169.178a9.721,9.721,0,1,0,18.8,4.957Z" transform="translate(-788.139 -71.704)"/><g transform="translate(592.712 257.645)"><path class="c" d="M2005.384,762.928l-79.552-.6a3.289,3.289,0,0,1-3.265-3.314l.4-53.186a3.289,3.289,0,0,1,3.314-3.265l79.553.6a3.289,3.289,0,0,1,3.264,3.314l-.4,53.186A3.289,3.289,0,0,1,2005.384,762.928Z" transform="translate(-1899.719 -702.566)"/><path class="c" d="M1872.168,801.086l-25.686,26.175,31.686-5.915Z" transform="translate(-1846.482 -771.502)"/><g transform="translate(-1916.848 -719.502)"><rect class="p" width="66" height="2" transform="translate(1950 765.559)"/><rect class="p" width="66" height="2.155" transform="translate(1950 754.269)"/><rect class="p" width="66" height="2.155" transform="translate(1950 743.135)"/><rect class="p" width="66" height="3" transform="translate(1950 731.559)"/></g></g><path class="s" d="M1613.722,939.671l7.156,21.467-21.807-8.577Z" transform="translate(-1080.653 -610.826)"/><path class="t" d="M1540.569,726.937c1.454.06,5.437,1.389,11.263,12.361,7.44,14.012,18.313,56.339,18.313,56.339l-32.456,12.046-4.17-8.835-6.867-68.016S1540.167,726.92,1540.569,726.937Z" transform="translate(-1029.982 -461.973)"/><path class="u" d="M1296,706.619c9.281.012,32.244,2.711,42.9,6.1,0,0,7.83,67.068-7.049,118.031-3.331,11.408,2.755,47.29,2.755,47.29l-96.17-1.265s11.393-86.748,7.1-100.76-4.394-62.845-4.394-62.845.659-.1,21.607-3.711A218.456,218.456,0,0,1,1296,706.619Z" transform="translate(-828.315 -447.757)"/><path class="v" d="M1329.117,1692.023s2.128,24.473,6.039,31.25-.206,18.3-.412,19.879-8.235,3.84-21,2.485-12.559-4.292-11.529-9.036,7.823-10.843,8.235-15.361-3.911-20.783-3.911-20.783Z" transform="translate(-872.638 -1137.255)"/><path class="w" d="M1319.935,1206.722s66.386-3.674,81.21,5.274-2.681,27.321-2.681,27.321-54.046,23.418-144.526,28.622c-21.426,1.233-23.273-55.677-19.266-60.386S1319.935,1206.722,1319.935,1206.722Z" transform="translate(-824.493 -796.634)"/><path class="g" d="M1310.329,1823.781c-13.144-1.4-11.519-7.831-10.459-12.716.664-3.059,4.434-6.664,6.682-10.075,1.175.933,3.086,2.58,8.794,4.26,5.928,1.745,14.053-1.708,19.231-3.871a63.079,63.079,0,0,1,1.757,16.9C1336.123,1819.9,1323.473,1825.177,1310.329,1823.781Z" transform="translate(-870.815 -1213.5)"/><path class="l" d="M1243.253,1255.585c2.652,20,15.784,119.576,15.784,119.576l-30.471,3.765s-37.471-129.968-35.549-149.847,15.948-21.552,15.948-21.552S1236.233,1202.637,1243.253,1255.585Z" transform="translate(-796.484 -798.165)"/><path class="u" d="M1341.783,415.229s-10.124-10.674-18.267,2.311a8.094,8.094,0,0,0-10.674,2.751s-11.334-3.411-14.085,13.535c0,0-5.832-1.1-6.6,5.833a17.154,17.154,0,0,0,2.751,11.554s-3.277,2.457-1.788,8.831a7.886,7.886,0,0,0,5.75,6.245s1.21,9.134,5.172,11.885,9.353,1.431,9.353,1.431,1.431,4.952,6.052,4.512,10.344-4.842,15.516-2.861,18.6-.11,18.6-.11,15.075-6.712,10.564-22.118c0,0,7.923-7.153.99-15.736,0,0,5.062-13.425-4.952-21.348S1341.783,415.229,1341.783,415.229Z" transform="translate(-865.824 -240.98)"/><path class="v" d="M1401.18,616.275l1.833,13.6s4.105,19.588-1.176,23.364-22.46-23.923-22.46-23.923l1.814-34.451Z" transform="translate(-926.931 -369.559)"/><path class="c" d="M1383.466,606.025c4.363,11.751,14.754,18.974,22.13,21.776l-1.554-11.527-19.989-21.414Z" transform="translate(-929.792 -369.558)"/><path class="v" d="M1384.653,472.04a18.17,18.17,0,0,1,23.779,14.479,137.38,137.38,0,0,1,1.474,17.444c.288,15.88-7.932,31.335-15.143,31.335s-27.14-10.28-27.861-32.824C1366.457,488.556,1373.406,475.912,1384.653,472.04Z" transform="translate(-918.188 -282.933)"/><path class="v" d="M1360.471,566.833c0,3.5-2.323,6.343-5.187,6.343s-5.187-2.84-5.187-6.343,2.323-6.343,5.187-6.343S1360.471,563.33,1360.471,566.833Z" transform="translate(-906.444 -345.509)"/><path class="u" d="M1476.113,436.714c7.448,5.9,10.059,14.866,5.83,20.025s-13.695,4.558-21.143-1.343-10.059-14.866-5.83-20.025S1468.665,430.813,1476.113,436.714Z" transform="translate(-978.408 -255.507)"/><path class="v" d="M1209.022,753.038c8.992-3.361,13.391,77.381,14.6,110.615,15.923,1.527,43.677.012,50.588-.506,3.25-.243,10.745-2.979,13.977-3.4a32.464,32.464,0,0,1,7.944-.375c.6.1,17.2,6.868,18.615,8.352,1.761,1.84,6.521,6.48,5.718,8.487s-9.155-5.591-9.155-5.591l-4.082-2.282c5.081,4.947,14.773,11.462,13.377,13.835-1.362,2.314-10.1-4.3-16.335-8.8,5.344,4.811,11.984,13.42,10.454,14.762-1.375,1.206-8.927-8.761-17-11.631-2.991-1.063-5.972,1.882-8.325,2.238-1.73.262-4.4.818-6.1.338l-8.739-2.47c-2.977.268-3.052,2.023-6.058,2.661-3.49.74-9.216,1.519-13.661,2.6-25.594,6.232-34.13,9.126-41.966,9.121C1189.148,890.974,1187.771,760.982,1209.022,753.038Z" transform="translate(-797.239 -480.165)"/><path class="u" d="M1185.623,811.261c-1.684-34.042-1.438-76,17.71-83.159,7.555-2.824,20.874,14.159,18.479,83.85C1211.59,812.794,1196.583,813.471,1185.623,811.261Z" transform="translate(-790.904 -462.585)"/><path class="s" d="M1470.963,957h-1.951l-29.342,71.862,2.021-.307Z" transform="translate(-969.119 -622.952)"/><path class="v" d="M1633.884,1761.733s-2.658,8.5,2.1,14.114,24.543,11.13,27.14,14.173,2.4,5.634,2.4,5.634L1610,1794.131l.605-16.712,2.557-12.009Z" transform="translate(-1088.303 -1186.031)"/><path class="g" d="M1632.2,1815.095s-14.267,5.752-21.158,2.346-6.683-4.348-8.677-3.079-2.708,16.936-2.708,16.936l62.434,1.829c4.345-.1,6.541-3.288,3.011-6.019a50.946,50.946,0,0,0-6.807-4.033C1653.411,1820.284,1632.2,1815.095,1632.2,1815.095Z" transform="translate(-1081.063 -1222.479)"/><path class="l" d="M1634.277,1225.575c4.291-9,14.052-20.718,31.224-13.66,16.379,6.731,20.775,23.275,15.607,40.215s-39.188,116.525-40.374,130.217l-27.163.18s4.936-78.853,6.148-97.913C1620.885,1266.275,1626.85,1241.153,1634.277,1225.575Z" transform="translate(-1090.8 -799.805)"/><path class="c" d="M1417.339,957h-90.8a5.92,5.92,0,0,0-5.478,3.674l-27.958,68.188h-50.057a2.534,2.534,0,0,0-2.535,2.533h0a2.534,2.534,0,0,0,2.535,2.533h142.469a9.946,9.946,0,0,0,9.073-5.872l28.151-62.71A5.92,5.92,0,0,0,1417.339,957Z" transform="translate(-829.766 -622.952)"/><path class="p" d="M1643.643,1073.845c-.613,3.063-3.285,5.111-5.967,4.575s-4.36-3.454-3.746-6.517,3.285-5.111,5.967-4.574S1644.257,1070.782,1643.643,1073.845Z" transform="translate(-1104.956 -700.089)"/><ellipse class="x" cx="44.834" cy="44.927" rx="44.834" ry="44.927" transform="translate(238.579 147.741)"/><g transform="translate(235.094 144.69)"><g transform="translate(80.007 47.094)"><rect class="m" width="16.528" height="1.273"/></g><g transform="translate(0 47.094)"><rect class="m" width="16.528" height="1.273"/></g><g transform="translate(47.753)"><rect class="m" width="1.27" height="16.562"/></g><g transform="translate(47.753 79.853)"><rect class="m" width="1.27" height="16.562"/></g><path class="m" d="M811.92,482.989a1.368,1.368,0,1,0,1.368-1.371A1.37,1.37,0,0,0,811.92,482.989Z" transform="translate(-764.97 -435.011)"/><g transform="translate(47.707 22.73)"><path class="m" d="M815.052,427.966a.609.609,0,0,0,.432-.18l24.584-24.635a.612.612,0,0,0-.865-.867L814.619,426.92a.613.613,0,0,0,.432,1.046Z" transform="translate(-814.44 -402.105)"/></g><g transform="translate(39.769 47.978)"><path class="m" d="M788.651,511.081a.444.444,0,0,0,.222-.258l7.946-24.052a.445.445,0,1,0-.844-.28l-7.946,24.052a.446.446,0,0,0,.283.563A.441.441,0,0,0,788.651,511.081Z" transform="translate(-788.007 -486.184)"/></g></g><path class="u" d="M515.834,766.877l-4-6.5,3.213-1.3a1.374,1.374,0,0,0,.757-1.79h0a1.374,1.374,0,0,0-1.79-.757l-3.706,1.5-3.577-5.837,3.432-1.392a1.374,1.374,0,0,0,.757-1.79h0a1.374,1.374,0,0,0-1.79-.757l-3.925,1.592-4.155-6.684a1.374,1.374,0,0,0-1.683-.548l-.6.243a1.374,1.374,0,0,0-.655,1.991l3.864,6.307-5.691,2.308-4.155-6.684a1.374,1.374,0,0,0-1.683-.548l-.654.265a1.374,1.374,0,0,0-.655,1.991L493,754.795l-3.213,1.3a1.374,1.374,0,0,0-.757,1.789h0a1.374,1.374,0,0,0,1.79.757l3.706-1.5L498.05,763l-3.432,1.392a1.374,1.374,0,0,0-.757,1.79h0a1.374,1.374,0,0,0,1.79.757l3.925-1.592,4.244,6.893a1.374,1.374,0,0,0,1.686.553l.7-.284a1.374,1.374,0,0,0,.653-1.994l-4-6.5,5.69-2.308,4.244,6.893a1.374,1.374,0,0,0,1.686.553l.7-.284A1.374,1.374,0,0,0,515.834,766.877Zm-14.5-5.208-3.578-5.837,5.69-2.308,3.578,5.837Z" transform="translate(-303.876 -472.873)"/><path class="o" d="M1674.309,171.763l-4.092-9.235,5.288-8.606a1.388,1.388,0,0,0-1.325-2.107l-10.047,1.038-6.55-7.688a1.388,1.388,0,0,0-2.414.609l-2.118,9.876-9.336,3.854a1.388,1.388,0,0,0-.166,2.484l8.738,5.066.78,10.07a1.388,1.388,0,0,0,2.311.926l7.518-6.745,9.818,2.37A1.388,1.388,0,0,0,1674.309,171.763Z" transform="translate(-1111.291 -54.559)"/><path class="n" d="M705.6,187.505l-3.069-6.927,3.966-6.455a1.041,1.041,0,0,0-.994-1.581l-7.536.778-4.914-5.767a1.041,1.041,0,0,0-1.81.457l-1.589,7.408-7,2.891a1.041,1.041,0,0,0-.125,1.863l6.554,3.8.585,7.554a1.041,1.041,0,0,0,1.733.695l5.639-5.06,7.365,1.778A1.041,1.041,0,0,0,705.6,187.505Z" transform="translate(-438.977 -70.311)"/><path class="o" d="M832.167,850.785l.486-5.738,5-2.852a.791.791,0,0,0-.085-1.417l-5.307-2.236L831.1,832.9a.791.791,0,0,0-1.373-.357l-3.766,4.356-5.724-.633a.791.791,0,0,0-.764,1.2l2.98,4.928-2.371,5.248a.791.791,0,0,0,.9,1.1l5.607-1.311,4.259,3.876A.791.791,0,0,0,832.167,850.785Z" transform="translate(-535.077 -535.677)"/><path class="y" d="M2350.4,578.277l-2.25-5.08,2.908-4.734a.764.764,0,0,0-.729-1.159l-5.526.571-3.6-4.229a.763.763,0,0,0-1.327.335l-1.165,5.433-5.135,2.12a.764.764,0,0,0-.092,1.366l4.806,2.787.429,5.539a.763.763,0,0,0,1.271.509l4.136-3.71,5.4,1.3A.764.764,0,0,0,2350.4,578.277Z" transform="translate(-1594.26 -347.529)"/><path class="p" d="M1770.3,547.666l-2.251-5.08,2.909-4.734a.764.764,0,0,0-.729-1.159l-5.526.571-3.6-4.229a.763.763,0,0,0-1.328.335l-1.165,5.432-5.135,2.12a.764.764,0,0,0-.092,1.366l4.807,2.787.429,5.539a.763.763,0,0,0,1.271.509l4.136-3.71,5.4,1.3A.763.763,0,0,0,1770.3,547.666Z" transform="translate(-1188.362 -326.11)"/><path class="p" d="M2016.828,290.745l-8.919-1.294-3.667,14.12-13.273-.283-4.472,10.119-5.122-2.264,5.981-13.533,12.579.269,3.815-14.689,13.421,1.947Z" transform="translate(-1348.156 -151.479)"/><path class="u" d="M2067.974,1064.575l-6.75-5.972-10.808,9.8-10.945-7.515-9.288,6.01-3.042-4.7,12.422-8.038,10.373,7.122,11.244-10.193,10.156,8.987Z" transform="translate(-1380.179 -688.783)"/><path class="p" d="M2427.4,1040.263l-5.664-9.2,4.548-1.844a1.944,1.944,0,0,0,1.071-2.533h0a1.944,1.944,0,0,0-2.533-1.071l-5.245,2.127-5.063-8.261,4.858-1.97a1.944,1.944,0,0,0,1.072-2.533h0a1.945,1.945,0,0,0-2.533-1.072l-5.555,2.253-5.881-9.46a1.945,1.945,0,0,0-2.383-.776l-.848.344a1.945,1.945,0,0,0-.927,2.818l5.469,8.926-8.054,3.266-5.88-9.46a1.945,1.945,0,0,0-2.383-.775l-.926.375a1.944,1.944,0,0,0-.927,2.818l5.469,8.927-4.548,1.844a1.944,1.944,0,0,0-1.071,2.533h0a1.944,1.944,0,0,0,2.533,1.071l5.245-2.127,4.986,8.292-4.858,1.97a1.945,1.945,0,0,0-1.072,2.533h0a1.945,1.945,0,0,0,2.533,1.071l5.555-2.252,6.007,9.756a1.944,1.944,0,0,0,2.387.782l.992-.4a1.945,1.945,0,0,0,.925-2.822l-5.664-9.2,8.054-3.266,6.007,9.756a1.945,1.945,0,0,0,2.387.783l.992-.4A1.945,1.945,0,0,0,2427.4,1040.263Zm-20.523-7.37-5.063-8.261,8.053-3.266,5.064,8.261Z" transform="translate(-1633.602 -657.084)"/><g transform="translate(211.578 333.399)"><path class="l" d="M796.7,1202.4c.576-5.087,1.26-10.291,3.622-14.831,2.871-5.52,7.915-9.5,12.322-13.891a77.061,77.061,0,0,0,18.374-29.288c2.941-8.5,4.407-17.551,8.46-25.576,2.475-4.9,5.85-9.281,8.66-14,6.644-11.143,10.26-24.312,19.269-33.638a40.434,40.434,0,0,1-9.132,31.985c-2.219,2.588-4.792,4.921-6.483,7.883-3.069,5.376-2.789,11.936-3.149,18.118a79.561,79.561,0,0,1-9.514,33.3c-5.911,10.854-14.442,20.52-17.6,32.472-2.368,8.957-1.664,19-6.713,26.767a6.842,6.842,0,0,0-1.307,2.681,5.845,5.845,0,0,0,.1,1.683q.169,1.082.339,2.163c1.149,7.331,2.335,16.659-3.964,22.145-4.366,3.8-9.985,3.887-13.121-1.163-3.157-5.086-2.877-12.529-2.643-18.252C794.6,1221.432,795.624,1211.875,796.7,1202.4Z" transform="translate(-728.971 -1036.244)"/><path class="w" d="M754.136,1115.094c2.451-8.486,6.255-16.568,8.161-25.194,1.849-8.366,1.864-17.016,1.87-25.584l.02-28.169a106.177,106.177,0,0,1,.977-17.488c2.079-12.4,8.525-23.874,9.617-36.4.472-5.418-.076-10.9.52-16.3a25.643,25.643,0,0,1,2.562-8.981,4,4,0,0,1,7.178.2c3.131,6.784,5.117,14.118,3.852,21.387-.759,4.36-2.647,8.427-4.058,12.622-6.279,18.679-2.946,39.357-7.8,58.457-1.467,5.766-3.684,11.419-3.942,17.363-.617,14.227,10.008,27.222,9.033,41.428-.8,11.648-9.173,21.287-12.688,32.418-1.968,6.232-2.389,12.883-4.5,19.068-1.638,4.806-5.446,10.641-11.363,9.183-5.617-1.385-3.919-5.969-3.669-10.348C750.755,1143.939,749.957,1129.566,754.136,1115.094Z" transform="translate(-697.758 -954.835)"/><path class="l" d="M685.456,1142.595c.247-4.409.992-8.843.375-13.217-.521-3.693-1.991-7.173-3.041-10.752-1.968-6.706-2.455-13.744-2.931-20.717l-2.6-38.026c-1.346-19.7-2.7-39.462-6.384-58.863-1.023-5.387-2.171-11.224.25-16.141.51-1.036,1.514-2.136,2.615-1.791.784.246,1.169,1.11,1.453,1.882,8.053,21.885,11.1,45.447,20.085,66.963,2.153,5.154,4.657,10.225,5.772,15.7,1.338,6.574.6,13.365.43,20.072a94.685,94.685,0,0,0,3.345,28.56c1.39,4.838,3.251,9.567,4.012,14.543.95,6.206.152,12.526-.442,18.775a288.427,288.427,0,0,0-1.159,36.164c.218,7.092-5.768,6.906-9.734,2.549-2.773-3.047-2.748-6.392-3.7-10.185C690.691,1165.659,684.7,1156.1,685.456,1142.595Z" transform="translate(-641.933 -974.559)"/><path class="w" d="M839.592,1483.785c5.294-8.506,15.84-13.342,19.223-22.775.861-2.4,1.2-4.982,2.249-7.305,2.336-5.159,7.648-8.075,12.869-10.449a1.1,1.1,0,0,1,1.56.994h0a3.77,3.77,0,0,1-1.635,3.186,21.183,21.183,0,0,0-8.441,11.512c-1.613,5.529-.913,11.59-2.918,16.988-1.683,4.532-5.148,8.237-6.775,12.789-1.488,4.161-1.331,8.708-2.031,13.072s-2.638,9-6.646,10.843C832.548,1519.322,836.172,1489.281,839.592,1483.785Z" transform="translate(-758.666 -1296.518)"/><path class="l" d="M597.872,1436.605c.226,4.112-.4,8.424,1.206,12.213,1.029,2.425,2.882,4.385,4.4,6.535,5.338,7.55,7.274,18.248,15.475,22.5a2.79,2.79,0,0,0,1.744.42,2.674,2.674,0,0,0,1.729-1.754c2.01-4.685-.246-9.963-1.582-14.884a3.655,3.655,0,0,1-.019-2.612c.452-.871,1.481-1.249,2.184-1.932,1.4-1.363,1.269-3.618.991-5.555a125.952,125.952,0,0,0-2.925-14.364,25.123,25.123,0,0,0-3.075-7.683c-1.7-2.533-4.168-4.423-6.479-6.411a76.782,76.782,0,0,1-22.415-33.089c-.948-2.761-1.793-5.676-3.751-7.839s-5.449-3.275-7.833-1.6c-1.7,1.194,5.253,12.373,6.063,13.713,2.315,3.83,2.346,7.164,3.655,11.418C590.448,1416.107,597.258,1425.437,597.872,1436.605Z" transform="translate(-577.257 -1252.145)"/><path class="w" d="M628.229,1355.227c-1.517-3.923-3.047-7.9-3.547-12.074-.556-4.644.181-9.393-.612-14-1.02-5.925-4.475-11.137-6.185-16.9-1.235-4.162-1.538-8.535-2.28-12.813-2.121-12.233-7.873-24.187-6.222-36.493.359-2.677,1.567-5.8,4.224-6.253,2.4-.413,4.594,1.786,5.22,4.149s.159,4.856-.013,7.295a30.113,30.113,0,0,0,5.394,19.313c3.778,5.346,9.26,9.371,12.66,14.966,4.17,6.863,4.738,15.241,6.866,22.988,4.232,15.406,14.846,28.847,16.781,44.708.77,6.311-.712,13.984-6.536,16.505C637.131,1393.909,632.046,1365.1,628.229,1355.227Z" transform="translate(-599.531 -1166.012)"/><path class="c" d="M677.548,1650.059h38.663a4.1,4.1,0,0,1,3.982,5.05L706.1,1714.541a4.1,4.1,0,0,1-3.982,3.154H655.674a4.1,4.1,0,0,1-3.982-3.154L637.6,1655.109a4.1,4.1,0,0,1,3.982-5.05Z" transform="translate(-619.399 -1441.291)"/></g><g transform="translate(657.634 472.607)"><rect class="m" width="187.937" height="9.707" transform="translate(187.937 9.707) rotate(180)"/><rect class="m" width="122.873" height="8.494" transform="translate(184.539 64.801) rotate(180)"/><rect class="m" width="7.927" height="132.387" transform="translate(18.443 4.853)"/><rect class="m" width="7.927" height="132.387" transform="translate(130.558 4.853)"/><path class="m" d="M2238.764,1564.311l-42.705-131.248,7-2.277,43.446,133.526Z" transform="translate(-2156.006 -1427.071)"/><path class="m" d="M2653.205,1564.359l-36.526-131.536,7.093-1.97,37.073,133.505Z" transform="translate(-2450.32 -1427.119)"/></g><path class="z" d="M694.471,311.454a52.47,52.47,0,1,1-52.361,52.47A52.415,52.415,0,0,1,694.471,311.454Zm-2.808,97.308a44.927,44.927,0,1,0-41.937-47.653A44.867,44.867,0,0,0,691.662,408.762Z" transform="translate(-411.058 -171.256)"/><rect class="t" width="863.222" height="5.855" transform="translate(917.864 614.89) rotate(180)"/><path class="p" d="M1414.954,629.754l-13.96-.228s.235,5.308,6.371,5.585C1414.848,635.45,1414.954,629.754,1414.954,629.754Z" transform="translate(-942.057 -393.814)"/></g></svg>